HIERARCHY
ROOT Hips
{
  OFFSET 0.000000 95.000000 0.000000
  CHANNELS 6 Xposition Yposition Zposition Zrotation Xrotation Yrotation
  JOINT Spine
  {
    OFFSET 0.000000 10.000000 0.000000
    CHANNELS 3 Zrotation Xrotation Yrotation
    JOINT Spine1
    {
      OFFSET 0.000000 12.000000 0.000000
      CHANNELS 3 Zrotation Xrotation Yrotation
      JOINT Spine2
      {
        OFFSET 0.000000 12.000000 0.000000
        CHANNELS 3 Zrotation Xrotation Yrotation
        JOINT Neck
        {
          OFFSET 0.000000 10.000000 0.000000
          CHANNELS 3 Zrotation Xrotation Yrotation
          JOINT Head
          {
            OFFSET 0.000000 8.000000 0.000000
            CHANNELS 3 Zrotation Xrotation Yrotation
            End Site
            {
              OFFSET 0.000000 10.000000 0.000000
            }
          }
        }
        JOINT LeftShoulder
        {
          OFFSET 6.000000 8.000000 0.000000
          CHANNELS 3 Zrotation Xrotation Yrotation
          JOINT LeftArm
          {
            OFFSET 12.000000 0.000000 0.000000
            CHANNELS 3 Zrotation Xrotation Yrotation
            JOINT LeftForeArm
            {
              OFFSET 24.000000 0.000000 0.000000
              CHANNELS 3 Zrotation Xrotation Yrotation
              JOINT LeftHand
              {
                OFFSET 22.000000 0.000000 0.000000
                CHANNELS 3 Zrotation Xrotation Yrotation
                JOINT LeftHandThumb1
                {
                  OFFSET 1.800000 -1.400000 0.500000
                  CHANNELS 3 Zrotation Xrotation Yrotation
                  JOINT LeftHandThumb2
                  {
                    OFFSET 2.400000 0.000000 0.000000
                    CHANNELS 3 Zrotation Xrotation Yrotation
                    JOINT LeftHandThumb3
                    {
                      OFFSET 1.900000 0.000000 0.000000
                      CHANNELS 3 Zrotation Xrotation Yrotation
                      End Site
                      {
                        OFFSET 1.600000 0.000000 0.000000
                      }
                    }
                  }
                }
                JOINT LeftHandIndex1
                {
                  OFFSET 6.600000 1.200000 0.300000
                  CHANNELS 3 Zrotation Xrotation Yrotation
                  JOINT LeftHandIndex2
                  {
                    OFFSET 2.000000 0.000000 0.000000
                    CHANNELS 3 Zrotation Xrotation Yrotation
                    JOINT LeftHandIndex3
                    {
                      OFFSET 1.200000 0.000000 0.000000
                      CHANNELS 3 Zrotation Xrotation Yrotation
                      End Site
                      {
                        OFFSET 1.000000 0.000000 0.000000
                      }
                    }
                  }
                }
                JOINT LeftHandMiddle1
                {
                  OFFSET 7.200000 0.000000 0.300000
                  CHANNELS 3 Zrotation Xrotation Yrotation
                  JOINT LeftHandMiddle2
                  {
                    OFFSET 3.000000 0.000000 0.000000
                    CHANNELS 3 Zrotation Xrotation Yrotation
                    JOINT LeftHandMiddle3
                    {
                      OFFSET 2.000000 0.000000 0.000000
                      CHANNELS 3 Zrotation Xrotation Yrotation
                      End Site
                      {
                        OFFSET 1.600000 0.000000 0.000000
                      }
                    }
                  }
                }
                JOINT LeftHandRing1
                {
                  OFFSET 7.100000 -1.000000 0.400000
                  CHANNELS 3 Zrotation Xrotation Yrotation
                  JOINT LeftHandRing2
                  {
                    OFFSET 2.600000 0.000000 0.000000
                    CHANNELS 3 Zrotation Xrotation Yrotation
                    JOINT LeftHandRing3
                    {
                      OFFSET 1.600000 0.000000 0.000000
                      CHANNELS 3 Zrotation Xrotation Yrotation
                      End Site
                      {
                        OFFSET 1.300000 0.000000 0.000000
                      }
                    }
                  }
                }
                JOINT LeftHandPinky1
                {
                  OFFSET 6.500000 -2.000000 0.500000
                  CHANNELS 3 Zrotation Xrotation Yrotation
                  JOINT LeftHandPinky2
                  {
                    OFFSET 1.900000 0.000000 0.000000
                    CHANNELS 3 Zrotation Xrotation Yrotation
                    JOINT LeftHandPinky3
                    {
                      OFFSET 1.400000 0.000000 0.000000
                      CHANNELS 3 Zrotation Xrotation Yrotation
                      End Site
                      {
                        OFFSET 1.300000 0.000000 0.000000
                      }
                    }
                  }
                }
              }
            }
          }
        }
        JOINT RightShoulder
        {
          OFFSET -6.000000 8.000000 0.000000
          CHANNELS 3 Zrotation Xrotation Yrotation
          JOINT RightArm
          {
            OFFSET -12.000000 0.000000 0.000000
            CHANNELS 3 Zrotation Xrotation Yrotation
            JOINT RightForeArm
            {
              OFFSET -24.000000 0.000000 0.000000
              CHANNELS 3 Zrotation Xrotation Yrotation
              JOINT RightHand
              {
                OFFSET -22.000000 0.000000 0.000000
                CHANNELS 3 Zrotation Xrotation Yrotation
                JOINT RightHandThumb1
                {
                  OFFSET -1.800000 -1.400000 0.500000
                  CHANNELS 3 Zrotation Xrotation Yrotation
                  JOINT RightHandThumb2
                  {
                    OFFSET -2.400000 0.000000 0.000000
                    CHANNELS 3 Zrotation Xrotation Yrotation
                    JOINT RightHandThumb3
                    {
                      OFFSET -1.900000 0.000000 0.000000
                      CHANNELS 3 Zrotation Xrotation Yrotation
                      End Site
                      {
                        OFFSET -1.600000 0.000000 0.000000
                      }
                    }
                  }
                }
                JOINT RightHandIndex1
                {
                  OFFSET -6.600000 1.200000 0.300000
                  CHANNELS 3 Zrotation Xrotation Yrotation
                  JOINT RightHandIndex2
                  {
                    OFFSET -2.000000 0.000000 0.000000
                    CHANNELS 3 Zrotation Xrotation Yrotation
                    JOINT RightHandIndex3
                    {
                      OFFSET -1.200000 0.000000 0.000000
                      CHANNELS 3 Zrotation Xrotation Yrotation
                      End Site
                      {
                        OFFSET -1.000000 0.000000 0.000000
                      }
                    }
                  }
                }
                JOINT RightHandMiddle1
                {
                  OFFSET -7.200000 0.000000 0.300000
                  CHANNELS 3 Zrotation Xrotation Yrotation
                  JOINT RightHandMiddle2
                  {
                    OFFSET -3.000000 0.000000 0.000000
                    CHANNELS 3 Zrotation Xrotation Yrotation
                    JOINT RightHandMiddle3
                    {
                      OFFSET -2.000000 0.000000 0.000000
                      CHANNELS 3 Zrotation Xrotation Yrotation
                      End Site
                      {
                        OFFSET -1.600000 0.000000 0.000000
                      }
                    }
                  }
                }
                JOINT RightHandRing1
                {
                  OFFSET -7.100000 -1.000000 0.400000
                  CHANNELS 3 Zrotation Xrotation Yrotation
                  JOINT RightHandRing2
                  {
                    OFFSET -2.600000 0.000000 0.000000
                    CHANNELS 3 Zrotation Xrotation Yrotation
                    JOINT RightHandRing3
                    {
                      OFFSET -1.600000 0.000000 0.000000
                      CHANNELS 3 Zrotation Xrotation Yrotation
                      End Site
                      {
                        OFFSET -1.300000 0.000000 0.000000
                      }
                    }
                  }
                }
                JOINT RightHandPinky1
                {
                  OFFSET -6.500000 -2.000000 0.500000
                  CHANNELS 3 Zrotation Xrotation Yrotation
                  JOINT RightHandPinky2
                  {
                    OFFSET -1.900000 0.000000 0.000000
                    CHANNELS 3 Zrotation Xrotation Yrotation
                    JOINT RightHandPinky3
                    {
                      OFFSET -1.400000 0.000000 0.000000
                      CHANNELS 3 Zrotation Xrotation Yrotation
                      End Site
                      {
                        OFFSET -1.300000 0.000000 0.000000
                      }
                    }
                  }
                }
              }
            }
          }
        }
      }
    }
  }
  JOINT LeftUpLeg
  {
    OFFSET 10.000000 -5.000000 0.000000
    CHANNELS 3 Zrotation Xrotation Yrotation
    JOINT LeftLeg
    {
      OFFSET 0.000000 -42.000000 0.000000
      CHANNELS 3 Zrotation Xrotation Yrotation
      JOINT LeftFoot
      {
        OFFSET 0.000000 -42.000000 4.000000
        CHANNELS 3 Zrotation Xrotation Yrotation
        End Site
        {
          OFFSET 0.000000 0.000000 12.000000
        }
      }
    }
  }
  JOINT RightUpLeg
  {
    OFFSET -10.000000 -5.000000 0.000000
    CHANNELS 3 Zrotation Xrotation Yrotation
    JOINT RightLeg
    {
      OFFSET 0.000000 -42.000000 0.000000
      CHANNELS 3 Zrotation Xrotation Yrotation
      JOINT RightFoot
      {
        OFFSET 0.000000 -42.000000 4.000000
        CHANNELS 3 Zrotation Xrotation Yrotation
        End Site
        {
          OFFSET 0.000000 0.000000 12.000000
        }
      }
    }
  }
}
MOTION
Frames: 7
Frame Time: 0.033333
0.0000 95.0000 0.0000 0.0000 0.0000 0.0000 0.0000 0.0000 0.0000 0.0000 0.0000 0.0000 0.0000 0.0000 0.0000 0.0000 0.0000 0.0000 0.0000 0.0000 0.0000 0.0000 0.0000 0.0000 -76.4860 -10.1173 -12.8167 -59.9372 37.6208 -128.6958 -453.8422 -48.7495 472.7505 62.2148 -13.3197 -3.1859 12.0650 0.0000 0.0000 7.8107 0.0000 0.0000 -5.8025 0.3875 -0.9701 19.7104 0.0000 0.0000 8.6893 0.0000 0.0000 -0.6620 0.0261 -0.2558 15.9028 0.0000 0.0000 4.7865 0.0000 0.0000 6.4118 -0.0899 3.1957 18.6825 0.0000 0.0000 5.6226 0.0000 0.0000 13.8547 0.2950 7.3773 12.5407 0.0000 0.0000 6.9652 0.0000 0.0000 0.0000 0.0000 0.0000 70.3313 -15.3699 21.6852 -136.9392 52.7228 -38.0017 -137.4426 -29.6720 494.8966 -55.3202 -11.4607 -2.1994 0.3261 0.0000 0.0000 2.2296 0.0000 0.0000 13.7355 0.3799 -3.9047 84.0627 0.0000 0.0000 49.1174 0.0000 0.0000 10.6063 0.4641 -0.2249 6.2705 0.0000 0.0000 3.3822 0.0000 0.0000 -17.4215 -0.9231 3.5935 117.4061 0.0000 0.0000 34.5405 0.0000 0.0000 -38.4576 -2.5147 6.7592 94.5896 0.0000 0.0000 41.1000 0.0000 0.0000 0.0000 0.0000 0.0000 0.0000 0.0000 0.0000 0.0000 0.0000 0.0000 0.0000 0.0000 0.0000 0.0000 0.0000 0.0000 0.0000 0.0000 0.0000
0.0000 95.0000 0.0000 0.0000 0.0000 0.0000 0.0000 0.0000 0.0000 0.0000 0.0000 0.0000 0.0000 0.0000 0.0000 0.0000 0.0000 0.0000 0.0000 0.0000 0.0000 0.0000 0.0000 0.0000 -75.6312 -8.9963 -11.5758 -54.0829 29.1230 -108.7328 -615.3097 -25.9076 475.5764 67.6715 -14.3102 -7.5321 8.9119 0.0000 0.0000 7.1972 0.0000 0.0000 -11.4282 0.9645 -5.6585 16.0062 0.0000 0.0000 9.7089 0.0000 0.0000 -3.0514 0.0599 -2.5236 18.2814 0.0000 0.0000 9.9716 0.0000 0.0000 14.7389 -0.9231 -9.4752 75.6710 0.0000 0.0000 42.0777 0.0000 0.0000 25.5506 -2.2573 -5.2383 78.0495 0.0000 0.0000 50.6254 0.0000 0.0000 0.0000 0.0000 0.0000 72.2424 -15.2994 20.8564 -140.2945 53.7701 -40.7332 -137.4722 -32.2162 486.4526 -58.4950 -11.9122 -3.5054 2.2379 0.0000 0.0000 4.9880 0.0000 0.0000 11.0413 0.3669 -1.5301 14.5635 0.0000 0.0000 11.1045 0.0000 0.0000 7.7581 0.1803 2.1133 2.9860 0.0000 0.0000 2.7040 0.0000 0.0000 -11.1652 -0.6632 0.9660 17.7551 0.0000 0.0000 4.7859 0.0000 0.0000 -35.3026 -2.5441 0.9173 86.4578 0.0000 0.0000 43.9245 0.0000 0.0000 0.0000 0.0000 0.0000 0.0000 0.0000 0.0000 0.0000 0.0000 0.0000 0.0000 0.0000 0.0000 0.0000 0.0000 0.0000 0.0000 0.0000 0.0000
0.0000 95.0000 0.0000 0.0000 0.0000 0.0000 0.0000 0.0000 0.0000 0.0000 0.0000 0.0000 0.0000 0.0000 0.0000 0.0000 0.0000 0.0000 0.0000 0.0000 0.0000 0.0000 0.0000 0.0000 -75.7920 -7.6857 -9.8645 -52.6081 19.9816 -89.2101 -725.5336 -58.2566 385.4401 79.6977 -15.2880 -12.7385 25.6311 0.0000 0.0000 5.9892 0.0000 0.0000 -4.4507 -2.1790 16.5510 19.9556 0.0000 0.0000 12.2076 0.0000 0.0000 2.0375 -0.4066 17.8000 20.0641 0.0000 0.0000 4.3179 0.0000 0.0000 9.7179 0.6396 21.0607 20.3270 0.0000 0.0000 5.6138 0.0000 0.0000 18.1097 2.3338 25.2882 15.2798 0.0000 0.0000 7.7622 0.0000 0.0000 0.0000 0.0000 0.0000 74.3607 -15.2594 20.0311 -142.7579 52.0674 -42.2254 -139.7085 -33.0194 482.5942 -61.9516 -12.5599 -4.1470 4.5630 0.0000 0.0000 9.4968 0.0000 0.0000 8.7783 0.3880 -0.0609 2.2709 0.0000 0.0000 4.4011 0.0000 0.0000 5.3081 0.0635 3.4025 0.2193 0.0000 0.0000 2.2229 0.0000 0.0000 -4.6478 -0.2109 -0.4979 4.1232 0.0000 0.0000 2.3874 0.0000 0.0000 -31.4307 -2.1911 -3.9910 76.6882 0.0000 0.0000 47.9204 0.0000 0.0000 0.0000 0.0000 0.0000 0.0000 0.0000 0.0000 0.0000 0.0000 0.0000 0.0000 0.0000 0.0000 0.0000 0.0000 0.0000 0.0000 0.0000 0.0000
0.0000 95.0000 0.0000 0.0000 0.0000 0.0000 0.0000 0.0000 0.0000 0.0000 0.0000 0.0000 0.0000 0.0000 0.0000 0.0000 0.0000 0.0000 0.0000 0.0000 0.0000 0.0000 0.0000 0.0000 -75.1055 -6.2571 -8.1333 -52.9838 14.4850 -77.2986 -716.3712 -52.1512 379.6618 69.9718 -14.4792 -4.7709 6.9087 0.0000 0.0000 10.9502 0.0000 0.0000 -7.1359 -0.6518 8.2046 19.0319 0.0000 0.0000 8.9194 0.0000 0.0000 0.0342 -0.0050 11.7640 17.6147 0.0000 0.0000 3.9580 0.0000 0.0000 7.8449 0.6991 15.7163 17.1026 0.0000 0.0000 4.4971 0.0000 0.0000 15.5130 2.0748 19.2676 12.2095 0.0000 0.0000 4.2747 0.0000 0.0000 0.0000 0.0000 0.0000 75.7057 -15.2695 19.5725 -145.2607 51.7579 -44.0776 -132.6261 -35.0894 481.4101 -68.6629 -13.8219 -7.7070 9.4005 0.0000 0.0000 4.5417 0.0000 0.0000 14.8064 0.6223 -0.7701 6.1682 0.0000 0.0000 1.4205 0.0000 0.0000 -3.3969 -0.1734 -1.0711 9.4282 0.0000 0.0000 2.8241 0.0000 0.0000 -30.7256 -2.1320 -3.2668 110.8676 0.0000 0.0000 33.2789 0.0000 0.0000 -46.2223 -3.5418 -2.0283 93.0265 0.0000 0.0000 44.4327 0.0000 0.0000 0.0000 0.0000 0.0000 0.0000 0.0000 0.0000 0.0000 0.0000 0.0000 0.0000 0.0000 0.0000 0.0000 0.0000 0.0000 0.0000 0.0000 0.0000
0.0000 95.0000 0.0000 0.0000 0.0000 0.0000 0.0000 0.0000 0.0000 0.0000 0.0000 0.0000 0.0000 0.0000 0.0000 0.0000 0.0000 0.0000 0.0000 0.0000 0.0000 0.0000 0.0000 0.0000 -74.1679 -5.0326 -6.6549 -53.9164 11.0937 -69.7148 -713.2449 -47.8600 376.3102 74.6256 -15.0336 -8.3732 12.0353 0.0000 0.0000 6.5808 0.0000 0.0000 -8.4010 -0.2767 6.1052 19.0577 0.0000 0.0000 9.5680 0.0000 0.0000 -0.8866 0.1091 9.2547 18.7394 0.0000 0.0000 3.0906 0.0000 0.0000 6.9130 0.6620 13.0377 15.8099 0.0000 0.0000 3.2935 0.0000 0.0000 15.7223 1.7091 17.4254 12.1109 0.0000 0.0000 3.5546 0.0000 0.0000 0.0000 0.0000 0.0000 76.3804 -15.3821 19.4824 -147.8727 52.4263 -46.3864 -123.9655 -43.2159 468.5751 -65.2474 -12.6583 -12.4672 4.1825 0.0000 0.0000 7.6298 0.0000 0.0000 20.8271 0.9437 -7.6870 26.2141 0.0000 0.0000 11.7648 0.0000 0.0000 7.6630 0.0079 4.6534 3.3277 0.0000 0.0000 1.5173 0.0000 0.0000 -5.8866 -0.3647 0.3964 7.4375 0.0000 0.0000 1.7837 0.0000 0.0000 -28.4310 -1.6156 -9.2022 58.0657 0.0000 0.0000 62.6300 0.0000 0.0000 0.0000 0.0000 0.0000 0.0000 0.0000 0.0000 0.0000 0.0000 0.0000 0.0000 0.0000 0.0000 0.0000 0.0000 0.0000 0.0000 0.0000 0.0000
0.0000 95.0000 0.0000 0.0000 0.0000 0.0000 0.0000 0.0000 0.0000 0.0000 0.0000 0.0000 0.0000 0.0000 0.0000 0.0000 0.0000 0.0000 0.0000 0.0000 0.0000 0.0000 0.0000 0.0000 -73.5173 -4.1880 -5.6047 -55.2353 8.3660 -62.8222 -708.7758 -35.2504 372.3962 75.1932 -15.0942 -8.0989 12.9355 0.0000 0.0000 6.6145 0.0000 0.0000 -8.3035 -0.2440 5.7146 22.0444 0.0000 0.0000 9.1386 0.0000 0.0000 -1.1277 0.1306 8.4353 19.4622 0.0000 0.0000 3.5608 0.0000 0.0000 6.3676 0.6821 12.1867 16.9477 0.0000 0.0000 3.6786 0.0000 0.0000 13.1874 2.0207 15.9803 11.3151 0.0000 0.0000 4.8681 0.0000 0.0000 0.0000 0.0000 0.0000 75.7602 -15.5299 19.8845 -148.4172 54.7103 -47.7211 -137.1405 -32.9754 488.0155 -63.4382 -12.9858 -2.8319 1.2580 0.0000 0.0000 11.4257 0.0000 0.0000 18.7736 0.7175 -7.5098 3.7737 0.0000 0.0000 8.7676 0.0000 0.0000 10.9032 0.2936 1.6959 4.6736 0.0000 0.0000 2.2889 0.0000 0.0000 -11.0214 -0.7392 2.8712 16.8245 0.0000 0.0000 11.1533 0.0000 0.0000 -36.8665 -2.5367 5.1450 64.4286 0.0000 0.0000 46.9643 0.0000 0.0000 0.0000 0.0000 0.0000 0.0000 0.0000 0.0000 0.0000 0.0000 0.0000 0.0000 0.0000 0.0000 0.0000 0.0000 0.0000 0.0000 0.0000 0.0000
0.0000 95.0000 0.0000 0.0000 0.0000 0.0000 0.0000 0.0000 0.0000 0.0000 0.0000 0.0000 0.0000 0.0000 0.0000 0.0000 0.0000 0.0000 0.0000 0.0000 0.0000 0.0000 0.0000 0.0000 -73.1379 -3.5753 -4.8183 -55.8293 7.3054 -59.0469 -707.3610 -29.3618 368.5728 76.8092 -15.1774 -10.6228 14.3624 0.0000 0.0000 6.4184 0.0000 0.0000 -7.4505 -0.4102 6.4467 23.7200 0.0000 0.0000 10.1829 0.0000 0.0000 -0.6663 0.0819 9.2442 21.6587 0.0000 0.0000 3.8406 0.0000 0.0000 6.6595 0.6976 12.9433 19.2424 0.0000 0.0000 3.9968 0.0000 0.0000 13.1238 2.1604 16.6309 12.8134 0.0000 0.0000 5.8239 0.0000 0.0000 0.0000 0.0000 0.0000 75.2044 -15.5540 20.1116 -148.8238 56.3293 -48.5263 -138.1869 -34.6264 488.6992 -64.1004 -13.3231 -0.2375 2.2841 0.0000 0.0000 9.6247 0.0000 0.0000 12.2716 0.0082 -7.4114 1.1006 0.0000 0.0000 11.0185 0.0000 0.0000 7.3925 0.0811 3.5160 3.5610 0.0000 0.0000 3.2963 0.0000 0.0000 -9.9071 -0.8071 4.7839 8.2760 0.0000 0.0000 6.3307 0.0000 0.0000 -29.8805 -2.4851 8.5956 51.9796 0.0000 0.0000 39.3345 0.0000 0.0000 0.0000 0.0000 0.0000 0.0000 0.0000 0.0000 0.0000 0.0000 0.0000 0.0000 0.0000 0.0000 0.0000 0.0000 0.0000 0.0000 0.0000 0.0000
